<svg width="93" height="239" viewBox="0 0 93 239" fill="none" xmlns="http://www.w3.org/2000/svg">
<circle cx="46.5" cy="46.5" r="26" stroke="#FAAD01"/>
<path d="M56.5 45.134C57.1667 45.5189 57.1667 46.4811 56.5 46.866L41.5 55.5263C40.8333 55.9112 40 55.4301 40 54.6603L40 37.3397C40 36.5699 40.8333 36.0888 41.5 36.4737L56.5 45.134Z" fill="white"/>
<circle cx="46.5" cy="119.5" r="26" fill="white" stroke="#FAAD01"/>
<path d="M56.5 118.134C57.1667 118.519 57.1667 119.481 56.5 119.866L41.5 128.526C40.8333 128.911 40 128.43 40 127.66L40 110.34C40 109.57 40.8333 109.089 41.5 109.474L56.5 118.134Z" fill="#0A0A0A"/>
<circle cx="46.5" cy="192.5" r="26" fill="#FAAD01" stroke="#FAAD01"/>
<path d="M56.5 191.134C57.1667 191.519 57.1667 192.481 56.5 192.866L41.5 201.526C40.8333 201.911 40 201.43 40 200.66L40 183.34C40 182.57 40.8333 182.089 41.5 182.474L56.5 191.134Z" fill="#0A0A0A"/>
<rect x="0.5" y="0.5" width="92" height="238" rx="4.5" stroke="#9747FF" stroke-dasharray="10 5"/>
</svg>
